HIERARCHY
ROOT Hips
{
  OFFSET 71.7574 47.5266 353.468
  CHANNELS 6 Xposition Yposition Zposition Zrotation Xrotation Yrotation
  JOINT Spine
  {
    OFFSET 0 0 0
    CHANNELS 3 Zrotation Xrotation Yrotation
    JOINT Spine1
    {
      OFFSET 19 0 0
      CHANNELS 3 Zrotation Xrotation Yrotation
      JOINT Neck
      {
        OFFSET 22.5 0.6 0
        CHANNELS 3 Zrotation Xrotation Yrotation
        JOINT Head
        {
          OFFSET 14 0.0308777 0
          CHANNELS 3 Zrotation Xrotation Yrotation
          End Site
          {
            OFFSET 17 0 0
          }
        }
      }
      JOINT LeftShoulder
      {
        OFFSET 19.8 3.7 4.3
        CHANNELS 3 Zrotation Xrotation Yrotation
        JOINT LeftArm
        {
          OFFSET 8 0 0
          CHANNELS 3 Zrotation Xrotation Yrotation
          JOINT LeftForeArm
          {
            OFFSET 15.2 0 0
            CHANNELS 3 Zrotation Xrotation Yrotation
            JOINT LeftHand
            {
              OFFSET 17.8 0 0
              CHANNELS 3 Zrotation Xrotation Yrotation
              End Site
              {
                OFFSET 7.2 0 0
              }
            }
          }
        }
      }
      JOINT RightShoulder
      {
        OFFSET 19.8 3.7 -4.3
        CHANNELS 3 Zrotation Xrotation Yrotation
        JOINT RightArm
        {
          OFFSET 8 0 0.151654
          CHANNELS 3 Zrotation Xrotation Yrotation
          JOINT RightForeArm
          {
            OFFSET 15.2 0 0
            CHANNELS 3 Zrotation Xrotation Yrotation
            JOINT RightHand
            {
              OFFSET 17.8 0 0
              CHANNELS 3 Zrotation Xrotation Yrotation
              End Site
              {
                OFFSET 7.2 0 0
              }
            }
          }
        }
      }
    }
  }
  JOINT LeftUpLeg
  {
    OFFSET 5.98425 -7.666 4.78879
    CHANNELS 3 Zrotation Xrotation Yrotation
    JOINT LeftLeg
    {
      OFFSET 16 0 0
      CHANNELS 3 Zrotation Xrotation Yrotation
      JOINT LeftFoot
      {
        OFFSET 18 0 0
        CHANNELS 3 Zrotation Xrotation Yrotation
        End Site
        {
          OFFSET 0 -10.8 0
        }
      }
    }
  }
  JOINT RightUpLeg
  {
    OFFSET 5.98425 -7.66598 -4.78879
    CHANNELS 3 Zrotation Xrotation Yrotation
    JOINT RightLeg
    {
      OFFSET 16 0 0
      CHANNELS 3 Zrotation Xrotation Yrotation
      JOINT RightFoot
      {
        OFFSET 18 0 0
        CHANNELS 3 Zrotation Xrotation Yrotation
        End Site
        {
          OFFSET 0 -10.8 0
        }
      }
    }
  }
  JOINT Tail
  {
    OFFSET 6.83696 -0.722574 0
    CHANNELS 3 Zrotation Xrotation Yrotation
    JOINT Tail1
    {
      OFFSET 12 0 0
      CHANNELS 3 Zrotation Xrotation Yrotation
      End Site
      {
        OFFSET 12 0 0
      }
    }
  }
}
MOTION
Frames:	7
Frame Time:	0.0166667
-48.2842 46.4827 35.7552 0.587395 -8.4565 -178.977 -159.661 1.58368 -5.91649 -29.5997 -0.30284 7.77138 -22.777 -6.58115 7.88323 -111.505 65.7955 117.799 -110.371 -35.2806 -140.668 115.935 -38.815 -130.643 -71.1519 4.56294 -1.07378 -6.83076 1.37911 -10.166 75.7697 -28.2442 41.9411 38.8386 -54.0931 -52.4309 -63.3504 -21.2919 5.27567 -9.49887 -0.450269 7.64581 -126.49 -5.51601 -29.9575 80.7053 5.13757 16.5521 43.2821 -3.01468 -6.24037 -125.758 -5.4445 -15.2141 77.6977 -21.923 3.49842 59.4145 3.51051 0.65163 123.606 -0.473447 -174.721 -176.964 5.15352 178.008 
-48.1779 46.5099 35.6195 0.853859 -8.83607 -178.525 -160.101 1.71217 -6.25609 -28.6525 -0.533253 8.86571 -22.521 -6.33846 8.65259 -113.596 65.0581 117.679 -110.575 -35.4277 -140.912 117.56 -38.2766 -129.146 -68.8319 5.94889 -2.10617 -7.6264 1.49985 -10.7269 75.7831 -28.4172 42.4402 37.3857 -53.8092 -53.2618 -62.4453 -21.2293 4.96521 -9.96254 -0.322057 7.02782 -126.243 -5.39131 -30.2506 80.7305 5.19621 16.4566 43.1023 -3.00842 -6.23124 -125.324 -5.15023 -15.3943 77.5507 -21.8978 3.41143 59.5935 3.52005 0.637722 124.036 -1.78358 -174.82 -176.913 7.30837 177.873 
-48.068 46.5635 35.4865 1.16985 -9.1274 -178.013 -160.209 1.80112 -6.22852 -28.0889 -0.75147 9.61231 -22.1035 -6.12871 9.31536 -116.035 63.6957 117.054 -110.492 -35.4035 -140.739 121.088 -39.4851 -128.017 -66.2207 9.93684 -3.68517 -9.12045 1.19014 -9.85109 75.7976 -28.3864 42.4141 36.4445 -53.5896 -53.3431 -62.0655 -21.1584 4.54819 -10.0514 -0.183397 6.48886 -125.978 -5.24619 -30.5482 80.7222 5.43855 16.402 43.2451 -3.0612 -6.29661 -124.742 -4.9264 -15.3663 77.161 -21.9772 3.23153 60.1262 3.4783 0.563372 124.458 -3.37049 -175.054 -176.943 9.87092 177.773 
-47.9526 46.6198 35.3629 1.36708 -9.38198 -177.552 -160.325 1.82853 -6.07688 -27.6675 -0.970723 10.1273 -21.8274 -5.79578 9.87122 -117.789 62.2129 116.806 -110.396 -35.4642 -140.361 122.7 -40.658 -127.098 -64.4952 11.8406 -5.17139 -10.4002 1.67403 -11.7569 75.8597 -28.1771 42.0997 35.5844 -53.4202 -53.1479 -61.8318 -20.8534 4.17993 -9.74776 -0.0854677 6.18675 -125.699 -5.13014 -30.8849 80.4902 5.79576 16.476 43.5308 -3.15992 -6.4197 -124.501 -4.65164 -15.3343 76.9975 -22.3361 3.05968 60.7658 3.51612 0.53461 124.735 -5.10492 -175.416 -177.036 12.8048 177.734 
-47.857 46.6622 35.2404 1.58356 -9.57621 -177.188 -160.446 1.89732 -6.16183 -27.2474 -1.17222 10.8573 -21.6696 -5.11716 10.0934 -119.2 61.537 116.892 -110.377 -35.527 -140.181 123.692 -40.7729 -126.154 -63.0652 12.8866 -6.02995 -10.5478 1.53248 -11.1754 75.8945 -28.0517 41.9004 35.1525 -53.5328 -52.8493 -61.9263 -19.9586 4.01052 -9.0289 -0.111648 6.27535 -125.43 -5.0552 -30.9786 80.4067 5.72415 16.4734 43.7107 -3.18282 -6.44396 -123.844 -4.62791 -15.437 76.5596 -21.6955 2.95745 60.5772 3.3634 0.434694 124.987 -6.92958 -175.955 -177.16 16.0817 177.762 
-47.723 46.6822 35.1368 1.58534 -9.72101 -176.915 -160.841 1.98084 -6.84858 -26.8523 -1.53683 12.3312 -21.2393 -4.57996 10.0809 -120.37 61.2659 116.816 -110.376 -35.4912 -140.253 124.729 -40.7368 -124.731 -61.4465 13.7639 -7.20594 -10.8477 1.62277 -11.4922 76.0791 -27.8646 42.099 35.3657 -53.4244 -52.1204 -61.9067 -19.922 3.83376 -8.90322 0.148776 5.08529 -125.415 -4.95788 -30.9392 80.4175 5.65188 16.328 43.9686 -3.17333 -6.42331 -123.777 -4.48674 -15.5618 76.4651 -21.6909 2.97015 61.3703 3.36623 0.352433 125.014 -8.8295 -176.624 -177.261 19.5732 177.841 
-47.55 46.6973 35.0395 1.44291 -9.85017 -176.591 -161.483 2.00132 -7.32663 -26.3244 -1.9661 13.6843 -20.5582 -4.00002 10.1466 -121.354 61.1958 117.061 -110.284 -35.4938 -139.998 125.565 -40.5674 -123.714 -59.8783 14.0903 -7.93078 -10.891 1.64037 -11.5535 76.2732 -27.6652 42.3061 34.113 -53.3854 -52.2305 -61.1903 -19.586 3.39478 -9.25857 0.154239 5.08949 -125.603 -4.7964 -31.0076 80.4246 5.79163 16.2176 44.4843 -3.21511 -6.46389 -123.705 -4.42391 -15.6221 76.2738 -21.7784 2.97482 61.7981 3.35683 0.305973 124.814 -10.8506 -177.296 -177.294 23.2252 177.964 
